<svg width="79" height="79" viewBox="0 0 79 79" fill="none" xmlns="http://www.w3.org/2000/svg">
<g id="life-insurance 1">
<path id="Vector" d="M65.4219 54.3125H67.3191C68.9765 54.3127 70.601 53.8507 72.0103 52.9785C73.4196 52.1063 74.5577 50.8584 75.2969 49.375C74.4686 49.3763 73.6533 49.1687 72.9264 48.7715C72.1996 48.3743 71.5846 47.8003 71.1383 47.1025L70.3594 43.5339V39.5C70.3594 37.2084 69.449 35.0106 67.8286 33.3902C66.2082 31.7697 64.0104 30.8594 61.7188 30.8594C59.4271 30.8594 57.2293 31.7697 55.6089 33.3902C53.9885 35.0106 53.0781 37.2084 53.0781 39.5V43.5339L52.3017 47.1025C51.8545 47.8 51.2389 48.3738 50.5118 48.7709C49.7846 49.168 48.9692 49.3758 48.1406 49.375C48.8797 50.8582 50.0176 52.106 51.4267 52.9782C52.8357 53.8504 54.46 54.3125 56.1172 54.3125H65.4219Z" fill="#E59A48"/>
<path id="Vector_2" d="M71.1374 47.1026L70.3598 43.534V39.5001C70.3328 37.2803 69.4525 35.156 67.9014 33.5677C66.3502 31.9795 64.2473 31.0493 62.0287 30.9699C59.8101 30.8905 57.6461 31.6681 55.9854 33.1414C54.3248 34.6147 53.2949 36.6707 53.1094 38.8829C55.0117 42.6834 57.9121 45.8946 61.5 48.1726C65.0879 50.4505 69.2279 51.7094 73.4766 51.8142C74.2198 51.1125 74.8358 50.2872 75.2973 49.3751C74.4687 49.3766 73.6532 49.1691 72.9261 48.7719C72.199 48.3747 71.5838 47.8006 71.1374 47.1026Z" fill="#FFBB61"/>
<path id="Vector_3" d="M76.5312 77.7656V62.9531C76.5312 61.851 76.2116 60.7726 75.6111 59.8485C75.0106 58.9243 74.1549 58.1942 73.1478 57.7465L65.4219 54.3125V51.8438H58.0156V54.3125L50.2897 57.7465C49.2826 58.1942 48.4269 58.9243 47.8264 59.8485C47.2259 60.7726 46.9063 61.851 46.9062 62.9531V77.7656H76.5312Z" fill="#039147"/>
<path id="Vector_4" d="M76.5312 62.9531C76.5314 61.851 76.2118 60.7725 75.6113 59.8483C75.0107 58.9242 74.155 58.1941 73.1478 57.7465L65.4219 54.3125V51.8438H58.0156V54.3125L50.2897 57.7465C50.1922 57.7897 50.1045 57.8477 50.0107 57.8959C49.5964 58.6961 49.3785 59.5833 49.375 60.4844C49.375 64.4129 50.9356 68.1805 53.7135 70.9584C56.4914 73.7363 60.259 75.2969 64.1875 75.2969H76.5312V62.9531Z" fill="#12AF55"/>
<path id="Vector_5" d="M61.7186 62.9531C66.8721 62.9531 71.206 60.6078 72.4576 57.4416L65.4217 54.3125V51.8438H58.0154V54.3125L50.9795 57.4416C52.2311 60.614 56.565 62.9531 61.7186 62.9531Z" fill="#F4B3B3"/>
<path id="Vector_6" d="M65.4217 54.3125V53.3027C64.2996 53.9638 63.0209 54.3125 61.7186 54.3125C60.4162 54.3125 59.1375 53.9638 58.0154 53.3027V54.3125L50.9795 57.4416C52.2311 60.6139 56.565 62.9531 61.7186 62.9531C66.8721 62.9531 71.206 60.6078 72.4576 57.4416L65.4217 54.3125Z" fill="#FCD2D2"/>
<path id="Vector_7" d="M55.5469 43.2031H54.3125C53.6577 43.2031 53.0298 43.4632 52.5668 43.9262C52.1038 44.3892 51.8438 45.0171 51.8438 45.6719C51.8438 46.3266 52.1038 46.9546 52.5668 47.4175C53.0298 47.8805 53.6577 48.1406 54.3125 48.1406H55.6703" fill="#EFA0A0"/>
<path id="Vector_8" d="M67.891 43.2031H69.1254C69.7801 43.2031 70.4081 43.4632 70.8711 43.9262C71.334 44.3892 71.5941 45.0171 71.5941 45.6719C71.5941 46.3266 71.334 46.9546 70.8711 47.4175C70.4081 47.8805 69.7801 48.1406 69.1254 48.1406H67.7676" fill="#EFA0A0"/>
<path id="Vector_9" d="M54.3125 77.7656H51.8438V72.0689C51.0424 71.0957 50.6058 69.8733 50.6094 68.6127V68.4003C50.6073 67.6844 50.7473 66.9751 51.0213 66.3136C51.2953 65.6521 51.6977 65.0515 52.2054 64.5466L53.4398 63.3123L55.1852 65.0577L53.9509 66.292C53.6731 66.5685 53.4529 66.8973 53.3031 67.2594C53.1533 67.6215 53.0769 68.0097 53.0781 68.4016V68.6139C53.0769 69.0052 53.1535 69.3929 53.3033 69.7544C53.4531 70.1158 53.6732 70.444 53.9509 70.7197C54.0656 70.8345 54.1566 70.9707 54.2187 71.1207C54.2808 71.2707 54.3126 71.4314 54.3125 71.5937V77.7656Z" fill="#00753A"/>
<path id="Vector_10" d="M71.5934 77.7655H69.1247V71.5936C69.1245 71.4313 69.1564 71.2706 69.2185 71.1207C69.2805 70.9707 69.3716 70.8344 69.4863 70.7197C69.764 70.444 69.9841 70.1158 70.1339 69.7543C70.2837 69.3928 70.3602 69.0052 70.359 68.6139V68.4015C70.3602 68.0102 70.2837 67.6226 70.1339 67.2611C69.9841 66.8996 69.764 66.5714 69.4863 66.2957L68.252 65.0613L69.9974 63.3159L71.2317 64.5503C71.7394 65.0547 72.1418 65.6548 72.4158 66.3159C72.6898 66.977 72.8298 67.6859 72.8278 68.4015V68.6139C72.8314 69.8745 72.3948 71.0969 71.5934 72.0701V77.7655Z" fill="#00753A"/>
<path id="Vector_11" d="M14.8125 51.8956V54.3125C14.8125 55.2946 15.2026 56.2365 15.8971 56.931C16.5916 57.6255 17.5335 58.0156 18.5156 58.0156C19.4978 58.0156 20.4397 57.6255 21.1341 56.931C21.8286 56.2365 22.2188 55.2946 22.2188 54.3125V51.8438L14.8125 51.8956Z" fill="#F4B3B3"/>
<path id="Vector_12" d="M34.5625 77.7656V62.9531C34.5625 61.8601 34.235 60.7921 33.6223 59.8869C33.0095 58.9818 32.1396 58.281 31.1248 57.8749L22.2188 54.3125H14.8125L5.90648 57.8749C4.89164 58.281 4.02173 58.9818 3.40898 59.8869C2.79622 60.7921 2.46873 61.8601 2.46875 62.9531V77.7656H34.5625Z" fill="#2A78E9"/>
<path id="Vector_13" d="M34.5625 62.9531C34.5625 61.8601 34.235 60.7921 33.6223 59.8869C33.0095 58.9818 32.1396 58.281 31.1248 57.8749L22.2188 54.3125H14.8125L5.90648 57.8749C5.76577 57.9317 5.63616 58.007 5.50037 58.0736C5.1306 58.8235 4.93802 59.6483 4.9375 60.4844C4.9375 64.4129 6.4981 68.1805 9.27598 70.9584C12.0539 73.7363 15.8215 75.2969 19.75 75.2969H34.5625V62.9531Z" fill="#4B97F3"/>
<path id="Vector_14" d="M7.40625 66.6562H9.875V77.7656H7.40625V66.6562Z" fill="#114998"/>
<path id="Vector_15" d="M9.875 71.5024V66.6562H7.40625V68.6658C8.10549 69.7123 8.93507 70.6654 9.875 71.5024Z" fill="#2A78E9"/>
<path id="Vector_16" d="M27.1562 66.6562H29.625V75.2969H27.1562V66.6562Z" fill="#2A78E9"/>
<path id="Vector_17" d="M9.875 43.5339V35.7969C9.875 34.4874 10.3952 33.2315 11.3212 32.3055C12.2471 31.3796 13.503 30.8594 14.8125 30.8594H19.75C20.7321 30.8594 21.674 31.2495 22.3685 31.944C23.063 32.6385 23.4531 33.5804 23.4531 34.5625C24.4353 34.5625 25.3772 34.9526 26.0716 35.6471C26.7661 36.3416 27.1562 37.2835 27.1562 38.2656V43.5352" fill="#603813"/>
<path id="Vector_18" d="M27.1562 38.2656C27.1562 37.2835 26.7661 36.3416 26.0716 35.6471C25.3772 34.9526 24.4353 34.5625 23.4531 34.5625C23.4531 33.5804 23.063 32.6385 22.3685 31.944C21.674 31.2495 20.7321 30.8594 19.75 30.8594H14.8125C14.1137 30.8611 13.4234 31.0127 12.7881 31.3038C12.497 31.939 12.3455 32.6293 12.3438 33.3281C12.3438 35.3801 13.1589 37.3481 14.6099 38.7991C16.0609 40.25 18.0288 41.0652 20.0808 41.0652H27.1562V38.2656Z" fill="#70492A"/>
<path id="Vector_19" d="M12.3438 43.2031H11.1094C10.4546 43.2031 9.82669 43.4632 9.36371 43.9262C8.90072 44.3892 8.64063 45.0171 8.64062 45.6719C8.64063 46.3266 8.90072 46.9546 9.36371 47.4175C9.82669 47.8805 10.4546 48.1406 11.1094 48.1406H12.4672" fill="#EFA0A0"/>
<path id="Vector_20" d="M24.6879 43.2031H25.9223C26.577 43.2031 27.205 43.4632 27.6679 43.9262C28.1309 44.3892 28.391 45.0171 28.391 45.6719C28.391 46.3266 28.1309 46.9546 27.6679 47.4175C27.205 47.8805 26.577 48.1406 25.9223 48.1406H24.5645" fill="#EFA0A0"/>
<path id="Vector_21" d="M24.6875 41.9688V46.9062C24.6875 48.5431 24.0373 50.113 22.8798 51.2704C21.7223 52.4279 20.1525 53.0781 18.5156 53.0781C16.8787 53.0781 15.3089 52.4279 14.1515 51.2704C12.994 50.113 12.3438 48.5431 12.3438 46.9062V41.9688H15.8469C16.9835 41.9688 18.0913 41.6111 19.0134 40.9465C19.9355 40.2819 20.625 39.3439 20.9844 38.2656L24.6875 41.9688Z" fill="#F4B3B3"/>
<path id="Vector_22" d="M14.8125 53.5547V54.3126C14.8125 55.2947 15.2026 56.2366 15.8971 56.9311C16.5916 57.6256 17.5335 58.0157 18.5156 58.0157C19.4978 58.0157 20.4397 57.6256 21.1341 56.9311C21.8286 56.2366 22.2188 55.2947 22.2188 54.3126V53.5547C21.0482 54.0548 19.7885 54.3126 18.5156 54.3126C17.2427 54.3126 15.983 54.0548 14.8125 53.5547Z" fill="#FCD2D2"/>
<path id="Vector_23" d="M27.1562 66.6562H29.625V77.7656H27.1562V66.6562Z" fill="#114998"/>
<path id="Vector_24" d="M15.8469 43.2031H12.3438V46.9062C12.3438 48.5431 12.994 50.113 14.1515 51.2704C15.3089 52.4279 16.8787 53.0781 18.5156 53.0781C20.1525 53.0781 21.7223 52.4279 22.8798 51.2704C24.0373 50.113 24.6875 48.5431 24.6875 46.9062V43.2031L20.9844 39.5C20.625 40.5783 19.9355 41.5162 19.0134 42.1809C18.0913 42.8455 16.9835 43.2031 15.8469 43.2031Z" fill="#FCD2D2"/>
<path id="Vector_25" d="M28.3906 77.7656V71.5938C28.3906 69.6295 29.1709 67.7457 30.5599 66.3567C31.9488 64.9678 33.8326 64.1875 35.7969 64.1875H43.2031C45.1674 64.1875 47.0512 64.9678 48.4401 66.3567C49.8291 67.7457 50.6094 69.6295 50.6094 71.5938V77.7656H28.3906Z" fill="#FF5252"/>
<path id="Vector_26" d="M50.6094 71.5938C50.6094 69.6295 49.8291 67.7457 48.4401 66.3567C47.0512 64.9678 45.1674 64.1875 43.2031 64.1875H35.7969C34.4378 64.1879 33.1053 64.5643 31.9469 65.275C31.2362 66.4334 30.8598 67.7659 30.8594 69.125C30.8594 70.7619 31.5096 72.3317 32.6671 73.4892C33.8245 74.6466 35.3944 75.2969 37.0312 75.2969H50.6094V71.5938Z" fill="#F96B6B"/>
<path id="Vector_27" d="M35.7969 62.9531V64.1875C35.7969 65.1696 36.187 66.1115 36.8815 66.806C37.576 67.5005 38.5179 67.8906 39.5 67.8906C40.4821 67.8906 41.424 67.5005 42.1185 66.806C42.813 66.1115 43.2031 65.1696 43.2031 64.1875V62.9531H35.7969Z" fill="#F4B3B3"/>
<path id="Vector_28" d="M35.8379 64.5947C35.9348 65.4985 36.3624 66.3345 37.0385 66.9419C37.7145 67.5494 38.5914 67.8855 39.5003 67.8855C40.4092 67.8855 41.286 67.5494 41.9621 66.9419C42.6382 66.3345 43.0658 65.4985 43.1627 64.5947C42.0186 65.1396 40.7674 65.4223 39.5003 65.4223C38.2331 65.4223 36.9819 65.1396 35.8379 64.5947Z" fill="#FCD2D2"/>
<path id="Vector_29" d="M37.0312 20.0461V32.0936C37.0312 32.7484 37.2914 33.3763 37.7543 33.8393C38.2173 34.3023 38.8452 34.5624 39.5 34.5624C40.1548 34.5624 40.7827 34.3023 41.2457 33.8393C41.7087 33.3763 41.9688 32.7484 41.9688 32.0936V20.0461" fill="#B3B3B3"/>
<path id="Vector_30" d="M39.5 34.5624C40.1548 34.5624 40.7827 34.3023 41.2457 33.8393C41.7087 33.3763 41.9688 32.7484 41.9688 32.0936V20.0461H39.5V34.5624Z" fill="#E6E6E6"/>
<path id="Vector_31" d="M8.64062 22.2188C10.8159 16.4174 14.71 11.4181 19.8023 7.88897C24.8947 4.3598 30.9429 2.46883 37.1386 2.46875H41.8614C48.0571 2.46883 54.1053 4.3598 59.1977 7.88897C64.29 11.4181 68.1841 16.4174 70.3594 22.2188H68.6387C67.2695 22.2187 65.9215 22.5566 64.7144 23.2026C63.5072 23.8486 62.4782 24.7827 61.7188 25.9219L58.9895 24.5567C57.5372 23.831 55.936 23.4532 54.3125 23.4531C52.689 23.4532 51.0878 23.831 49.6355 24.5567L46.9062 25.9219L44.177 24.5567C42.7247 23.831 41.1235 23.4532 39.5 23.4531C37.8765 23.4532 36.2753 23.831 34.823 24.5567L32.0938 25.9219L29.3645 24.5567C27.9122 23.831 26.311 23.4532 24.6875 23.4531C23.064 23.4532 21.4628 23.831 20.0105 24.5567L17.2812 25.9219C16.5218 24.7827 15.4928 23.8486 14.2856 23.2026C13.0785 22.5566 11.7305 22.2187 10.3613 22.2188H8.64062Z" fill="#114998"/>
<path id="Vector_32" d="M17.2813 20.9844L20.0105 19.6192C21.4628 18.8934 23.064 18.5156 24.6876 18.5156C26.3111 18.5156 27.9123 18.8934 29.3646 19.6192L32.0938 20.9844L34.823 19.6192C36.2753 18.8934 37.8765 18.5156 39.5001 18.5156C41.1236 18.5156 42.7248 18.8934 44.1771 19.6192L46.9063 20.9844L49.6355 19.6192C51.0878 18.8934 52.689 18.5156 54.3126 18.5156C55.9361 18.5156 57.5373 18.8934 58.9896 19.6192L61.7188 20.9844C62.4179 19.9395 63.3451 19.067 64.4305 18.4326C65.5158 17.7982 66.731 17.4185 67.9845 17.322C65.2885 12.7966 61.4638 9.04874 56.8847 6.44511C52.3056 3.84149 47.129 2.47134 41.8614 2.46875H37.1387C31.8711 2.47134 26.6945 3.84149 22.1154 6.44511C17.5363 9.04874 13.7116 12.7966 11.0156 17.322C12.2691 17.4185 13.4843 17.7982 14.5696 18.4326C15.655 19.067 16.5822 19.9395 17.2813 20.9844Z" fill="#4B97F3"/>
<path id="Vector_33" d="M39.994 2.59219L39.6348 2.46875C44.4422 8.87872 47.041 16.675 47.041 24.6875V25.9219L49.7702 24.5641C51.2223 23.8376 52.8236 23.4593 54.4473 23.4593C56.0709 23.4593 57.6723 23.8376 59.1243 24.5641L61.8535 25.9219C60.3267 20.5756 57.5472 15.6703 53.7456 11.613C49.9439 7.55573 45.2297 4.46329 39.994 2.59219Z" fill="#2A78E9"/>
<path id="Vector_34" d="M39.6348 2.46875L39.2793 2.59219C34.0428 4.46279 29.3279 7.55502 25.5256 11.6124C21.7233 15.6697 18.9432 20.5752 17.416 25.9219L20.1452 24.5641C21.5969 23.8359 23.1982 23.4555 24.8223 23.4531C26.4472 23.4552 28.0493 23.8355 29.5018 24.5641L32.2285 25.9219V24.6875C32.2285 16.675 34.8273 8.87872 39.6348 2.46875Z" fill="#2A78E9"/>
<path id="Vector_35" d="M39.994 2.59219L39.6348 2.46875C43.6679 7.85886 46.1551 14.2467 46.8287 20.9449L46.9065 20.9844L49.6357 19.6192C51.0879 18.8934 52.6892 18.5156 54.3127 18.5156C55.9362 18.5156 57.5375 18.8934 58.9898 19.6192L59.4909 19.866C55.4594 11.8118 48.4752 5.62403 39.994 2.59219Z" fill="#A2C4ED"/>
<path id="Vector_36" d="M39.2787 2.59219C30.8632 5.60117 23.9193 11.7182 19.873 19.687L20.0076 19.6192C21.4599 18.8934 23.0611 18.5156 24.6846 18.5156C26.3082 18.5156 27.9094 18.8934 29.3617 19.6192L32.0934 20.9844L32.4637 20.8017C33.1554 14.1555 35.6332 7.82055 39.6342 2.46875L39.2787 2.59219Z" fill="#A2C4ED"/>
<path id="Vector_37" d="M45.6719 55.5469C45.6719 52.1382 42.9086 49.375 39.5 49.375C36.0914 49.375 33.3281 52.1382 33.3281 55.5469V58.0156C33.3281 61.4243 36.0914 64.1875 39.5 64.1875C42.9086 64.1875 45.6719 61.4243 45.6719 58.0156V55.5469Z" fill="#F4B3B3"/>
<path id="Vector_38" d="M33.3281 71.5938H35.7969V77.7656H33.3281V71.5938Z" fill="#D64343"/>
<path id="Vector_39" d="M44.4375 71.5938H46.9062V77.7656H44.4375V71.5938Z" fill="#D64343"/>
<path id="Vector_40" d="M35.7969 75.1734V71.5938H33.3281V74.0341C34.0548 74.5948 34.8987 74.9842 35.7969 75.1734Z" fill="#FF5252"/>
<path id="Vector_41" d="M44.4375 71.5938H46.9062V75.2969H44.4375V71.5938Z" fill="#FF5252"/>
<path id="Vector_42" d="M61.7188 30.8594C61.3055 30.8628 60.8929 30.8958 60.4844 30.9581V41.9688H62.9531V30.9581C62.5446 30.8958 62.132 30.8628 61.7188 30.8594Z" fill="#E59A48"/>
<path id="Vector_43" d="M67.8906 41.9688V46.9062C67.8906 48.5431 67.2404 50.113 66.0829 51.2704C64.9255 52.4279 63.3556 53.0781 61.7188 53.0781C60.0819 53.0781 58.512 52.4279 57.3546 51.2704C56.1971 50.113 55.5469 48.5431 55.5469 46.9062V41.9688H56.58C57.7168 41.9686 58.8247 41.611 59.7469 40.9464C60.6692 40.2818 61.359 39.3439 61.7188 38.2656C62.078 39.3437 62.7674 40.2815 63.6892 40.9461C64.611 41.6107 65.7186 41.9685 66.855 41.9688H67.8906Z" fill="#F4B3B3"/>
<g id="Group">
<path id="Vector_44" d="M61.7188 39.5C61.359 40.5783 60.6692 41.5162 59.7469 42.1808C58.8247 42.8454 57.7168 43.203 56.58 43.2031H55.5469V46.9062C55.5469 48.5431 56.1971 50.113 57.3546 51.2704C58.512 52.4279 60.0819 53.0781 61.7188 53.0781C63.3556 53.0781 64.9255 52.4279 66.0829 51.2704C67.2404 50.113 67.8906 48.5431 67.8906 46.9062V43.2031H66.855C65.7186 43.2029 64.611 42.8451 63.6892 42.1805C62.7674 41.5159 62.078 40.5781 61.7188 39.5Z" fill="#FCD2D2"/>
<path id="Vector_45" d="M39.5 50.6094C37.8631 50.6094 36.2933 51.2596 35.1358 52.4171C33.9784 53.5745 33.3281 55.1444 33.3281 56.7812V58.0156C33.3281 59.6525 33.9784 61.2223 35.1358 62.3798C36.2933 63.5373 37.8631 64.1875 39.5 64.1875C41.1369 64.1875 42.7067 63.5373 43.8642 62.3798C45.0216 61.2223 45.6719 59.6525 45.6719 58.0156V56.7812C45.6719 55.1444 45.0216 53.5745 43.8642 52.4171C42.7067 51.2596 41.1369 50.6094 39.5 50.6094Z" fill="#FCD2D2"/>
</g>
</g>
</svg>
