<svg width="80" height="80" viewBox="0 0 80 80" fill="none" xmlns="http://www.w3.org/2000/svg">
<g id="commission 1">
<g id="Layer_x0020_1">
<g id="_320616232">
<path id="Vector" fill-rule="evenodd" clip-rule="evenodd" d="M16.4062 25.9285C9.26432 25.9285 3.45117 20.1153 3.45117 12.955C3.45117 5.81315 9.26432 0 16.4062 0C23.5481 0 29.3612 5.81315 29.3612 12.955C29.3612 20.1153 23.5481 25.9285 16.4062 25.9285Z" fill="#EF5350"/>
<path id="Vector_2" fill-rule="evenodd" clip-rule="evenodd" d="M16.7016 80.0001H8.65542C8.08333 80.0001 7.60352 79.5202 7.60352 78.9297V62.0254C7.60352 61.4349 8.08333 60.9551 8.65542 60.9551H16.7016C17.2921 60.9551 17.7535 61.4349 17.7535 62.0254V78.9297C17.7535 79.5202 17.2921 80.0001 16.7016 80.0001Z" fill="#EF5350"/>
<path id="Vector_3" fill-rule="evenodd" clip-rule="evenodd" d="M34.9164 80.0001H26.8703C26.2797 80.0001 25.8184 79.5203 25.8184 78.9298V45.3611C25.8184 44.7706 26.2797 44.2908 26.8703 44.2908H34.9164C35.5069 44.2908 35.9683 44.7706 35.9683 45.3611V78.9298C35.9683 79.5203 35.5069 80.0001 34.9164 80.0001Z" fill="#4FBA6F"/>
<path id="Vector_4" fill-rule="evenodd" clip-rule="evenodd" d="M53.1303 79.9999H45.0841C44.4936 79.9999 44.0322 79.5201 44.0322 78.9296V55.5109C44.0322 54.9203 44.4936 54.459 45.0841 54.459H53.1303C53.7024 54.459 54.1822 54.9203 54.1822 55.5109V78.9296C54.1822 79.5201 53.7024 79.9999 53.1303 79.9999Z" fill="#FFC107"/>
<path id="Vector_5" fill-rule="evenodd" clip-rule="evenodd" d="M71.345 80H63.2989C62.7083 80 62.2285 79.5202 62.2285 78.9296V38.8466C62.2285 38.2745 62.7083 37.7947 63.2989 37.7947H71.345C71.9171 37.7947 72.3969 38.2745 72.3969 38.8466V78.9296C72.3969 79.5202 71.9171 80 71.345 80Z" fill="#5C9CEE"/>
<path id="Vector_6" fill-rule="evenodd" clip-rule="evenodd" d="M16.6827 42.7775C16.369 42.7775 16.0368 42.6114 15.8338 42.3345C15.4832 41.8732 15.5755 41.1904 16.0553 40.8397L27.9768 32.0185C28.4567 31.6679 29.121 31.7786 29.4717 32.24C29.8223 32.7198 29.73 33.3841 29.2502 33.7348L17.3286 42.556C17.1256 42.7036 16.9042 42.7775 16.6827 42.7775ZM45.0103 37.7763C44.8442 37.7763 44.6781 37.7209 44.512 37.6471L36.2998 33.2181C35.7831 32.9412 35.5801 32.2953 35.8753 31.7786C36.1522 31.2619 36.7981 31.0773 37.3148 31.3542L45.527 35.7648C46.0437 36.0416 46.2283 36.6875 45.9515 37.2042C45.7669 37.5733 45.3978 37.7763 45.0103 37.7763ZM53.1672 37.1119C52.835 37.1119 52.5213 36.9643 52.3183 36.7059C51.9492 36.2261 52.0414 35.5618 52.5213 35.2111L62.7081 27.4049C63.1695 27.0543 63.8523 27.1465 64.2029 27.6079C64.5536 28.0877 64.4613 28.7521 63.9999 29.1027L53.8131 36.8905C53.6101 37.0381 53.3886 37.1119 53.1672 37.1119Z" fill="#3B566A"/>
<path id="Vector_7" fill-rule="evenodd" clip-rule="evenodd" d="M12.7891 50.5097C9.52267 50.5097 6.86523 47.8523 6.86523 44.6043C6.86523 41.3379 9.52267 38.6804 12.7891 38.6804C16.0555 38.6804 18.713 41.3379 18.713 44.6043C18.713 47.8523 16.0555 50.5097 12.7891 50.5097Z" fill="#EF5350"/>
<path id="Vector_8" fill-rule="evenodd" clip-rule="evenodd" d="M32.5166 35.9124C29.2502 35.9124 26.5928 33.255 26.5928 29.9886C26.5928 26.7221 29.2502 24.0647 32.5166 24.0647C35.7831 24.0647 38.4405 26.7221 38.4405 29.9886C38.4405 33.255 35.7831 35.9124 32.5166 35.9124Z" fill="#4FBA6F"/>
<path id="Vector_9" fill-rule="evenodd" clip-rule="evenodd" d="M49.2921 44.9182C46.0257 44.9182 43.3867 42.2607 43.3867 38.9943C43.3867 35.7463 46.0257 33.0889 49.2921 33.0889C52.5586 33.0889 55.216 35.7463 55.216 38.9943C55.216 42.2607 52.5586 44.9182 49.2921 44.9182Z" fill="#FFC107"/>
<path id="Vector_10" fill-rule="evenodd" clip-rule="evenodd" d="M67.211 31.2249C63.9445 31.2249 61.2871 28.5675 61.2871 25.3011C61.2871 22.0346 63.9445 19.3772 67.211 19.3772C70.4774 19.3772 73.1349 22.0346 73.1349 25.3011C73.1349 28.5675 70.4774 31.2249 67.211 31.2249Z" fill="#5C9CEE"/>
<path id="Vector_11" fill-rule="evenodd" clip-rule="evenodd" d="M16.406 2.12231C10.4268 2.12231 5.57324 6.99429 5.57324 12.9551C5.57324 18.9343 10.4268 23.7878 16.406 23.7878C22.3852 23.7878 27.2388 18.9343 27.2388 12.9551C27.2388 6.99429 22.3852 2.12231 16.406 2.12231Z" fill="#F5F5F5"/>
<g id="Group">
<path id="Vector_12" fill-rule="evenodd" clip-rule="evenodd" d="M11.4977 18.9344C11.2208 18.9344 10.9625 18.8421 10.741 18.6207C10.335 18.2147 10.335 17.5318 10.741 17.1258L20.5588 7.30809C20.9832 6.88363 21.6476 6.88363 22.072 7.30809C22.4965 7.71408 22.4965 8.3969 22.072 8.80289L12.2543 18.6207C12.0513 18.8421 11.7745 18.9344 11.4977 18.9344Z" fill="#EF5350"/>
<path id="Vector_13" fill-rule="evenodd" clip-rule="evenodd" d="M20.2824 20.0047C19.4335 20.0047 18.6399 19.6725 18.0494 19.082C16.813 17.8455 16.813 15.834 18.0494 14.5975C18.6399 14.007 19.4335 13.6748 20.2824 13.6748C21.1313 13.6748 21.9248 14.007 22.5338 14.5975C23.7703 15.834 23.7703 17.8455 22.5338 19.082C21.9248 19.6725 21.1313 20.0047 20.2824 20.0047ZM20.2824 15.7971C20.0056 15.7971 19.7472 15.9078 19.5442 16.1108C19.1382 16.5168 19.1382 17.1627 19.5442 17.5687C19.9502 17.9747 20.633 17.9747 21.0206 17.5687C21.4266 17.1627 21.4266 16.5168 21.0206 16.1108C20.836 15.9078 20.5592 15.7971 20.2824 15.7971Z" fill="#EF5350"/>
<path id="Vector_14" fill-rule="evenodd" clip-rule="evenodd" d="M12.5313 12.2538C11.6824 12.2538 10.8889 11.9217 10.2799 11.3311C9.04343 10.0947 9.04343 8.08314 10.2799 6.84669C10.8889 6.2377 11.6824 5.90552 12.5313 5.90552C13.3802 5.90552 14.1738 6.2377 14.7643 6.84669C16.0008 8.08314 16.0008 10.0947 14.7643 11.3311C14.1738 11.9217 13.3802 12.2538 12.5313 12.2538ZM12.5313 8.04623C12.2545 8.04623 11.9961 8.15696 11.7931 8.3415C11.3871 8.7475 11.3871 9.41186 11.7931 9.81786C12.1807 10.2054 12.882 10.2054 13.2695 9.81786C13.6755 9.41186 13.6755 8.7475 13.2695 8.3415C13.0665 8.15696 12.8081 8.04623 12.5313 8.04623Z" fill="#EF5350"/>
</g>
<path id="Vector_15" fill-rule="evenodd" clip-rule="evenodd" d="M76.8816 79.9999H3.11919C2.52864 79.9999 2.04883 79.5201 2.04883 78.9296C2.04883 78.339 2.52864 77.8777 3.11919 77.8777H76.8816C77.4721 77.8777 77.9519 78.339 77.9519 78.9296C77.9519 79.5201 77.4721 79.9999 76.8816 79.9999Z" fill="#3B566A"/>
</g>
</g>
</g>
</svg>
