<svg width="81" height="80" viewBox="0 0 81 80" fill="none" xmlns="http://www.w3.org/2000/svg">
<g id="tax 1" clip-path="url(#clip0_703_3987)">
<g id="Tax">
<path id="Vector" d="M65.5 6.25V70H15.5C14.837 70 14.2011 69.7366 13.7322 69.2678C13.2634 68.7989 13 68.163 13 67.5V32.5L5.5 0H59.25C60.9076 0 62.4973 0.65848 63.6694 1.83058C64.8415 3.00269 65.5 4.5924 65.5 6.25Z" fill="#F3F3F3"/>
<path id="Vector_2" d="M13 32.5H3C2.33696 32.5 1.70107 32.2366 1.23223 31.7678C0.763392 31.2989 0.5 30.663 0.5 30V6.25C0.5 4.5924 1.15848 3.00269 2.33058 1.83058C3.50269 0.65848 5.0924 0 6.75 0C8.4076 0 9.99732 0.65848 11.1694 1.83058C12.3415 3.00269 13 4.5924 13 6.25V32.5Z" fill="#D9D9D9"/>
<path id="Vector_3" d="M33 7.5H23C22.6685 7.5 22.3505 7.3683 22.1161 7.13388C21.8817 6.89946 21.75 6.58152 21.75 6.25C21.75 5.91848 21.8817 5.60054 22.1161 5.36612C22.3505 5.1317 22.6685 5 23 5H33C33.3315 5 33.6495 5.1317 33.8839 5.36612C34.1183 5.60054 34.25 5.91848 34.25 6.25C34.25 6.58152 34.1183 6.89946 33.8839 7.13388C33.6495 7.3683 33.3315 7.5 33 7.5Z" fill="#FFAC00"/>
<path id="Vector_4" d="M28 17.5C27.6685 17.5 27.3505 17.3683 27.1161 17.1339C26.8817 16.8995 26.75 16.5815 26.75 16.25V6.25C26.75 5.91848 26.8817 5.60054 27.1161 5.36612C27.3505 5.1317 27.6685 5 28 5C28.3315 5 28.6495 5.1317 28.8839 5.36612C29.1183 5.60054 29.25 5.91848 29.25 6.25V16.25C29.25 16.5815 29.1183 16.8995 28.8839 17.1339C28.6495 17.3683 28.3315 17.5 28 17.5Z" fill="#FFAC00"/>
<path id="Vector_5" d="M42.9999 17.5C42.7445 17.5009 42.495 17.4234 42.2849 17.2782C42.0748 17.1329 41.9143 16.9268 41.8249 16.6875L39.2499 9.81255L36.6749 16.6875C36.5589 16.9992 36.3238 17.2519 36.0214 17.3903C35.719 17.5286 35.374 17.5411 35.0624 17.425C34.7508 17.309 34.498 17.0739 34.3597 16.7715C34.2214 16.4691 34.2089 16.1242 34.3249 15.8125L38.0749 5.81255C38.1625 5.57123 38.3222 5.36274 38.5325 5.2154C38.7427 5.06805 38.9932 4.98901 39.2499 4.98901C39.5066 4.98901 39.7571 5.06805 39.9673 5.2154C40.1776 5.36274 40.3373 5.57123 40.4249 5.81255L44.1749 15.8125C44.2457 16.002 44.2694 16.2057 44.2442 16.4063C44.2189 16.6069 44.1453 16.7984 44.0298 16.9643C43.9143 17.1303 43.7602 17.2657 43.5808 17.359C43.4014 17.4523 43.2021 17.5007 42.9999 17.5Z" fill="#FFAC00"/>
<path id="Vector_6" d="M41.75 15H36.75C36.4185 15 36.1005 14.8683 35.8661 14.6339C35.6317 14.3995 35.5 14.0815 35.5 13.75C35.5 13.4185 35.6317 13.1005 35.8661 12.8661C36.1005 12.6317 36.4185 12.5 36.75 12.5H41.75C42.0815 12.5 42.3995 12.6317 42.6339 12.8661C42.8683 13.1005 43 13.4185 43 13.75C43 14.0815 42.8683 14.3995 42.6339 14.6339C42.3995 14.8683 42.0815 15 41.75 15Z" fill="#FFAC00"/>
<path id="Vector_7" d="M55.5 17.5C55.3059 17.5 55.1146 17.4548 54.941 17.368C54.7674 17.2812 54.6164 17.1552 54.5 17L47 7C46.9015 6.86868 46.8298 6.71924 46.7891 6.56023C46.7484 6.40121 46.7393 6.23573 46.7626 6.07322C46.7858 5.91072 46.8408 5.75438 46.9244 5.61313C47.008 5.47188 47.1187 5.34849 47.25 5.25C47.3813 5.15151 47.5308 5.07985 47.6898 5.03911C47.8488 4.99837 48.0143 4.98935 48.1768 5.01256C48.3393 5.03578 48.4956 5.09077 48.6369 5.17441C48.7781 5.25804 48.9015 5.36868 49 5.5L56.5 15.5C56.6393 15.6857 56.7241 15.9065 56.7449 16.1377C56.7658 16.3689 56.7218 16.6014 56.618 16.809C56.5142 17.0166 56.3546 17.1913 56.1572 17.3133C55.9597 17.4354 55.7321 17.5 55.5 17.5Z" fill="#FFAC00"/>
<path id="Vector_8" d="M48 17.5C47.7679 17.5 47.5403 17.4354 47.3428 17.3133C47.1454 17.1913 46.9858 17.0167 46.882 16.809C46.7782 16.6014 46.7342 16.369 46.7551 16.1377C46.7759 15.9065 46.8607 15.6857 47 15.5L54.5 5.50001C54.6989 5.23479 54.995 5.05945 55.3232 5.01257C55.6514 4.96568 55.9848 5.05109 56.25 5.25001C56.5152 5.44892 56.6906 5.74504 56.7374 6.07323C56.7843 6.40142 56.6989 6.73479 56.5 7.00001L49 17C48.8836 17.1553 48.7326 17.2813 48.559 17.368C48.3854 17.4548 48.1941 17.5 48 17.5Z" fill="#FFAC00"/>
<g id="Group">
<path id="Vector_9" d="M18 23.75H28V26.25H18V23.75Z" fill="#D9D9D9"/>
<path id="Vector_10" d="M33 23.75H60.5V26.25H33V23.75Z" fill="#D9D9D9"/>
<path id="Vector_11" d="M18 31.25H28V33.75H18V31.25Z" fill="#D9D9D9"/>
<path id="Vector_12" d="M33 31.25H53V33.75H33V31.25Z" fill="#D9D9D9"/>
<path id="Vector_13" d="M18 38.75H28V41.25H18V38.75Z" fill="#D9D9D9"/>
<path id="Vector_14" d="M33 38.75H60.5V41.25H33V38.75Z" fill="#D9D9D9"/>
<path id="Vector_15" d="M18 46.25H28V48.75H18V46.25Z" fill="#D9D9D9"/>
<path id="Vector_16" d="M33 46.25H60.5V48.75H33V46.25Z" fill="#D9D9D9"/>
<path id="Vector_17" d="M18 53.75H28V56.25H18V53.75Z" fill="#D9D9D9"/>
<path id="Vector_18" d="M33 53.75H60.5V56.25H33V53.75Z" fill="#D9D9D9"/>
<path id="Vector_19" d="M18 61.25H30.5V63.75H18V61.25Z" fill="#D9D9D9"/>
<path id="Vector_20" d="M65.4998 35V70H40.4998V56.25H60.4998V53.75H40.4998V48.75H60.4998V46.25H40.4998C40.4112 44.5829 40.4488 42.9115 40.6123 41.25H60.4998V38.75H41.5123C42.1699 37.611 43.1154 36.6649 44.2541 36.0067C45.3928 35.3485 46.6845 35.0013 47.9998 35H65.4998Z" fill="#D9D9D9"/>
</g>
<path id="Vector_21" d="M60.4998 38.75V41.25H40.6123C40.7472 40.3662 41.0529 39.517 41.5123 38.75H60.4998Z" fill="#C8C8C8"/>
<path id="Vector_22" d="M40.5 46.25H60.5V48.75H40.5V46.25Z" fill="#C8C8C8"/>
<path id="Vector_23" d="M40.5 53.75H60.5V56.25H40.5V53.75Z" fill="#C8C8C8"/>
<path id="Vector_24" d="M80.5 42.5V75C80.5 76.3261 79.9732 77.5979 79.0355 78.5355C78.0979 79.4732 76.8261 80 75.5 80H48C46.6739 80 45.4021 79.4732 44.4645 78.5355C43.5268 77.5979 43 76.3261 43 75V42.5C43 41.1739 43.5268 39.9021 44.4645 38.9645C45.4021 38.0268 46.6739 37.5 48 37.5H75.5C76.8261 37.5 78.0979 38.0268 79.0355 38.9645C79.9732 39.9021 80.5 41.1739 80.5 42.5Z" fill="#50D9D7"/>
<path id="Vector_25" d="M48 42.5H75.5V52.5H48V42.5Z" fill="white"/>
<path id="Vector_26" d="M51.75 55H49.25C48.5596 55 48 55.5596 48 56.25V58.75C48 59.4404 48.5596 60 49.25 60H51.75C52.4404 60 53 59.4404 53 58.75V56.25C53 55.5596 52.4404 55 51.75 55Z" fill="#00BEBD"/>
<path id="Vector_27" d="M59.25 55H56.75C56.0596 55 55.5 55.5596 55.5 56.25V58.75C55.5 59.4404 56.0596 60 56.75 60H59.25C59.9404 60 60.5 59.4404 60.5 58.75V56.25C60.5 55.5596 59.9404 55 59.25 55Z" fill="#00BEBD"/>
<path id="Vector_28" d="M66.75 55H64.25C63.5596 55 63 55.5596 63 56.25V58.75C63 59.4404 63.5596 60 64.25 60H66.75C67.4404 60 68 59.4404 68 58.75V56.25C68 55.5596 67.4404 55 66.75 55Z" fill="#00BEBD"/>
<path id="Vector_29" d="M74.25 55H71.75C71.0596 55 70.5 55.5596 70.5 56.25V58.75C70.5 59.4404 71.0596 60 71.75 60H74.25C74.9404 60 75.5 59.4404 75.5 58.75V56.25C75.5 55.5596 74.9404 55 74.25 55Z" fill="#00BEBD"/>
<path id="Vector_30" d="M51.75 62.5H49.25C48.5596 62.5 48 63.0596 48 63.75V66.25C48 66.9404 48.5596 67.5 49.25 67.5H51.75C52.4404 67.5 53 66.9404 53 66.25V63.75C53 63.0596 52.4404 62.5 51.75 62.5Z" fill="#00BEBD"/>
<path id="Vector_31" d="M59.25 62.5H56.75C56.0596 62.5 55.5 63.0596 55.5 63.75V66.25C55.5 66.9404 56.0596 67.5 56.75 67.5H59.25C59.9404 67.5 60.5 66.9404 60.5 66.25V63.75C60.5 63.0596 59.9404 62.5 59.25 62.5Z" fill="#00BEBD"/>
<path id="Vector_32" d="M66.75 62.5H64.25C63.5596 62.5 63 63.0596 63 63.75V66.25C63 66.9404 63.5596 67.5 64.25 67.5H66.75C67.4404 67.5 68 66.9404 68 66.25V63.75C68 63.0596 67.4404 62.5 66.75 62.5Z" fill="#00BEBD"/>
<path id="Vector_33" d="M51.75 70H49.25C48.5596 70 48 70.5596 48 71.25V73.75C48 74.4404 48.5596 75 49.25 75H51.75C52.4404 75 53 74.4404 53 73.75V71.25C53 70.5596 52.4404 70 51.75 70Z" fill="#00BEBD"/>
<path id="Vector_34" d="M59.25 70H56.75C56.0596 70 55.5 70.5596 55.5 71.25V73.75C55.5 74.4404 56.0596 75 56.75 75H59.25C59.9404 75 60.5 74.4404 60.5 73.75V71.25C60.5 70.5596 59.9404 70 59.25 70Z" fill="#00BEBD"/>
<path id="Vector_35" d="M66.75 70H64.25C63.5596 70 63 70.5596 63 71.25V73.75C63 74.4404 63.5596 75 64.25 75H66.75C67.4404 75 68 74.4404 68 73.75V71.25C68 70.5596 67.4404 70 66.75 70Z" fill="#00BEBD"/>
<path id="Vector_36" d="M74.25 62.5H71.75C71.0596 62.5 70.5 63.0596 70.5 63.75V73.75C70.5 74.4404 71.0596 75 71.75 75H74.25C74.9404 75 75.5 74.4404 75.5 73.75V63.75C75.5 63.0596 74.9404 62.5 74.25 62.5Z" fill="#00BEBD"/>
<path id="Vector_37" d="M65.5002 23.55V37.5H58.2502C57.6795 34.6962 58.088 31.7815 59.4075 29.2426C60.727 26.7037 62.8776 24.6943 65.5002 23.55Z" fill="#D9D9D9"/>
<path id="Vector_38" d="M80.5 42.5C79.1996 44.2267 77.4781 45.591 75.5 46.4625V42.5H60.5C59.3892 41.0204 58.6207 39.3126 58.25 37.5H75.5C76.8261 37.5 78.0979 38.0268 79.0355 38.9645C79.9732 39.9021 80.5 41.1739 80.5 42.5Z" fill="#00BEBD"/>
<path id="Vector_39" d="M75.5 42.5V46.4625C72.9189 47.5881 70.0333 47.8092 67.3109 47.09C64.5884 46.3708 62.1885 44.7535 60.5 42.5H75.5Z" fill="#F3F3F3"/>
<path id="Vector_40" d="M70.5 45C76.0228 45 80.5 40.5228 80.5 35C80.5 29.4772 76.0228 25 70.5 25C64.9772 25 60.5 29.4772 60.5 35C60.5 40.5228 64.9772 45 70.5 45Z" fill="#FFAC00"/>
<path id="Vector_41" d="M66.75 33.75C66.2555 33.75 65.7722 33.6034 65.3611 33.3287C64.95 33.054 64.6295 32.6635 64.4403 32.2067C64.2511 31.7499 64.2016 31.2472 64.298 30.7623C64.3945 30.2773 64.6326 29.8319 64.9822 29.4822C65.3319 29.1326 65.7773 28.8945 66.2623 28.798C66.7472 28.7016 67.2499 28.7511 67.7067 28.9403C68.1635 29.1295 68.554 29.45 68.8287 29.8611C69.1034 30.2722 69.25 30.7555 69.25 31.25C69.25 31.913 68.9866 32.5489 68.5178 33.0178C68.0489 33.4866 67.413 33.75 66.75 33.75Z" fill="white"/>
<path id="Vector_42" d="M74.25 41.25C73.7555 41.25 73.2722 41.1034 72.8611 40.8287C72.45 40.554 72.1295 40.1635 71.9403 39.7067C71.7511 39.2499 71.7016 38.7472 71.798 38.2623C71.8945 37.7773 72.1326 37.3319 72.4822 36.9822C72.8319 36.6326 73.2773 36.3945 73.7623 36.298C74.2472 36.2016 74.7499 36.2511 75.2067 36.4403C75.6635 36.6295 76.054 36.95 76.3287 37.3611C76.6034 37.7722 76.75 38.2555 76.75 38.75C76.75 39.413 76.4866 40.0489 76.0178 40.5178C75.5489 40.9866 74.913 41.25 74.25 41.25Z" fill="white"/>
<path id="Vector_43" d="M66.7504 40C66.5022 40.0014 66.2591 39.9289 66.0522 39.7917C65.8453 39.6544 65.6839 39.4586 65.5887 39.2293C65.4935 39 65.4687 38.7476 65.5176 38.5041C65.5664 38.2607 65.6866 38.0373 65.8629 37.8625L73.3629 30.3625C73.5983 30.1271 73.9176 29.9949 74.2504 29.9949C74.5833 29.9949 74.9026 30.1271 75.1379 30.3625C75.3733 30.5979 75.5056 30.9171 75.5056 31.25C75.5056 31.5829 75.3733 31.9021 75.1379 32.1375L67.6379 39.6375C67.5211 39.7533 67.3826 39.845 67.2303 39.9072C67.078 39.9694 66.9149 40.0009 66.7504 40Z" fill="white"/>
</g>
</g>
<defs>
<clipPath id="clip0_703_3987">
<rect width="80" height="80" fill="white" transform="translate(0.5)"/>
</clipPath>
</defs>
</svg>
