<svg width="80" height="80" viewBox="0 0 80 80" fill="none" xmlns="http://www.w3.org/2000/svg">
<g id="buy 1" clip-path="url(#clip0_703_4037)">
<path id="Vector" d="M15.1729 35.2412V76.6205H64.828V35.2412H15.1729Z" fill="#C49A6C"/>
<path id="Vector_2" d="M80 76.6203H56.5518C56.5518 73.5735 59.0221 71.1031 62.069 71.1031C62.1377 71.1031 62.2071 71.1172 62.2758 71.1172C62.1438 70.664 62.0737 70.1952 62.069 69.7238C62.069 66.6769 64.5394 64.2065 67.5862 64.2065C70.6331 64.2065 73.1035 66.6769 73.1035 69.7238C76.9121 69.7238 80 72.8117 80 76.6203Z" fill="#00CCB3"/>
<path id="Vector_3" d="M31.7246 46.2756H40.0005V50.4136H33.1039C32.3422 50.4136 31.7246 49.796 31.7246 49.0343V46.2756Z" fill="#D1D3D4"/>
<path id="Vector_4" d="M48.2759 43.517V46.2756H40V42.1377H46.8966C47.6583 42.1377 48.2759 42.7553 48.2759 43.517Z" fill="#D1D3D4"/>
<g id="Group">
<path id="Vector_5" d="M48.2759 46.2756V49.0343C48.2759 49.796 47.6583 50.4136 46.8966 50.4136H40V46.2756H48.2759Z" fill="#E6E7E8"/>
<path id="Vector_6" d="M33.1039 42.1377H40.0005V46.2756H31.7246V43.517C31.7246 42.7553 32.3422 42.1377 33.1039 42.1377Z" fill="#E6E7E8"/>
<path id="Vector_7" d="M52.4141 57.3101H60.6899V65.5859H52.4141V57.3101Z" fill="#E6E7E8"/>
<path id="Vector_8" d="M19.3105 57.3101H27.5864V65.5859H19.3105V57.3101Z" fill="#E6E7E8"/>
</g>
<path id="Vector_9" d="M31.7246 54.5515H48.2763V76.6205H31.7246V54.5515Z" fill="#8B5E3C"/>
<path id="Vector_10" d="M64.828 35.2411H15.1729L37.2418 13.1721V26.9652C37.2465 28.4873 38.479 29.7191 40.0004 29.7238H59.3108L64.828 35.2411Z" fill="#FFC477"/>
<path id="Vector_11" d="M73.7933 35.9308C74.9362 37.0737 74.9362 38.9265 73.7933 40.0687C72.6504 41.2116 70.7983 41.2116 69.6554 40.0687L59.3105 29.7239H67.5864L73.7933 35.9308Z" fill="#FF6243"/>
<path id="Vector_12" d="M39.9999 7.65492C38.4785 7.65963 37.246 8.89212 37.2413 10.4135V13.1722L10.3447 40.0687C9.20181 41.2116 7.34971 41.2116 6.2068 40.0687C5.06388 38.9265 5.06388 37.0737 6.2068 35.9308L38.0549 4.08272C38.5708 3.56615 39.2705 3.27588 39.9999 3.27588C40.7293 3.27588 41.429 3.56615 41.9449 4.08272L45.5171 7.65492H39.9999Z" fill="#FF6243"/>
<path id="Vector_13" d="M23.4487 76.6204H15.1729V68.0549C15.6901 68.5136 16.08 69.0975 16.3036 69.7515C16.3865 69.7515 16.4693 69.7238 16.5522 69.7238C17.0155 69.7205 17.4782 69.7669 17.9315 69.8619C21.1427 70.5172 23.4494 73.3425 23.4487 76.6204Z" fill="#A97C50"/>
<path id="Vector_14" d="M40.814 12.3587C40.9797 12.1883 41.171 12.0442 41.3797 11.931C40.3035 11.3013 38.9377 11.4764 38.0554 12.3587L15.1729 35.2412H17.9315L40.814 12.3587Z" fill="#FFB655"/>
<path id="Vector_15" d="M15.1729 35.2412V37.9998L17.9315 35.2412H15.1729Z" fill="#A97C50"/>
<path id="Vector_16" d="M31.7246 54.5515H34.4832V76.6205H31.7246V54.5515Z" fill="#754C29"/>
<path id="Vector_17" d="M19.3105 57.3101H22.0692V65.5859H19.3105V57.3101Z" fill="#D1D3D4"/>
<path id="Vector_18" d="M52.4141 57.3101H55.1727V65.5859H52.4141V57.3101Z" fill="#D1D3D4"/>
<path id="Vector_19" d="M70.345 32.4825H62.0692L59.3105 29.7239H67.5864L70.345 32.4825Z" fill="#FF5023"/>
<path id="Vector_20" d="M15.1724 69.862C18.3836 70.5173 20.6903 73.3426 20.6897 76.6205H0C0 74.3353 1.85277 72.4825 4.13793 72.4825C4.77101 72.4866 5.39399 72.6374 5.95838 72.9244C5.67214 72.36 5.52128 71.7363 5.51724 71.1032C5.51118 69.0848 6.96659 67.3579 8.95743 67.0225C10.9483 66.6871 12.8893 67.8422 13.5446 69.7515C13.6274 69.7515 13.7103 69.7239 13.7931 69.7239C14.2565 69.7206 14.7192 69.767 15.1724 69.862Z" fill="#00CCB3"/>
<path id="Vector_21" d="M39.9998 7.65479H75.8619C77.3853 7.65479 78.6205 8.88997 78.6205 10.4134V26.9651C78.6205 28.4886 77.3853 29.7237 75.8619 29.7237H39.9998C38.4764 29.7237 37.2412 28.4886 37.2412 26.9651V10.4134C37.2412 8.88997 38.4764 7.65479 39.9998 7.65479Z" fill="#FFA733"/>
<path id="Vector_22" d="M19.3105 57.3101H27.5864V58.6894H19.3105V57.3101Z" fill="#D1D3D4"/>
<path id="Vector_23" d="M52.4141 57.3101H60.6899V58.6894H52.4141V57.3101Z" fill="#D1D3D4"/>
<path id="Vector_24" d="M31.7246 54.5515H48.2763V57.3101H31.7246V54.5515Z" fill="#754C29"/>
<path id="Vector_25" d="M60.6894 66.9651H52.4135C51.6518 66.9651 51.0342 66.3476 51.0342 65.5858V57.31C51.0342 56.5483 51.6518 55.9307 52.4135 55.9307H60.6894C61.4511 55.9307 62.0687 56.5483 62.0687 57.31V65.5858C62.0687 66.3476 61.4511 66.9651 60.6894 66.9651ZM53.7928 64.2065H59.31V58.6893H53.7928V64.2065Z" fill="#754C29"/>
<path id="Vector_26" d="M27.5858 66.9651H19.31C18.5483 66.9651 17.9307 66.3476 17.9307 65.5858V57.31C17.9307 56.5483 18.5483 55.9307 19.31 55.9307H27.5858C28.3476 55.9307 28.9651 56.5483 28.9651 57.31V65.5858C28.9651 66.3476 28.3476 66.9651 27.5858 66.9651ZM20.6893 64.2065H26.2065V58.6893H20.6893V64.2065Z" fill="#754C29"/>
<path id="Vector_27" d="M46.8965 40.7583H33.1033C31.5799 40.7583 30.3447 41.9935 30.3447 43.5169V49.0342C30.3447 50.5576 31.5799 51.7928 33.1033 51.7928H46.8965C48.4199 51.7928 49.6551 50.5576 49.6551 49.0342V43.5169C49.6551 41.9935 48.4199 40.7583 46.8965 40.7583ZM46.8965 44.8962H41.3792V43.5169H46.8965V44.8962ZM38.6206 43.5169V44.8962H33.1033V43.5169H38.6206ZM33.1033 47.6549H38.6206V49.0342H33.1033V47.6549ZM41.3792 49.0342V47.6549H46.8965V49.0342H41.3792Z" fill="#754C29"/>
<path id="Vector_28" d="M37.241 68.3445H34.4824V65.5858H35.8617V62.8272H34.4824V60.0686H37.241C38.0028 60.0686 38.6204 60.6862 38.6204 61.4479V66.9652C38.6204 67.7269 38.0028 68.3445 37.241 68.3445Z" fill="#603913"/>
<path id="Vector_29" d="M46.8961 11.7928H42.7582C41.9965 11.7928 41.3789 12.4104 41.3789 13.1721V24.2066C41.3789 24.9683 41.9965 25.5859 42.7582 25.5859H46.8961C48.5314 25.5933 50.0164 24.6329 50.6798 23.1377C51.3432 21.6433 51.0603 19.8976 49.9585 18.6893C51.0603 17.4811 51.3432 15.7354 50.6798 14.2409C50.0164 12.7464 48.5314 11.7854 46.8961 11.7928ZM44.1375 14.5514H46.8961C47.6579 14.5514 48.2755 15.169 48.2755 15.9307C48.2755 16.6924 47.6579 17.31 46.8961 17.31H44.1375V14.5514ZM46.8961 22.8272H44.1375V20.0686H46.8961C47.6579 20.0686 48.2755 20.6862 48.2755 21.4479C48.2755 22.2097 47.6579 22.8272 46.8961 22.8272Z" fill="#E6E7E8"/>
<path id="Vector_30" d="M59.3106 21.4479C59.3106 22.2096 58.693 22.8272 57.9313 22.8272H56.552C55.7903 22.8272 55.1727 22.2096 55.1727 21.4479V11.7927H52.4141V21.4479C52.4141 23.7331 54.2668 25.5858 56.552 25.5858H57.9313C60.2165 25.5858 62.0692 23.7331 62.0692 21.4479V11.7927H59.3106V21.4479Z" fill="#E6E7E8"/>
<path id="Vector_31" d="M74.2853 12.5033L71.9214 11.0823L68.9654 16.0095L66.0095 11.0823L63.6455 12.5033L67.5861 19.0712V25.5859H70.3447V19.0712L74.2853 12.5033Z" fill="#E6E7E8"/>
</g>
<defs>
<clipPath id="clip0_703_4037">
<rect width="80" height="80" fill="white"/>
</clipPath>
</defs>
</svg>
